<svg id="svg" version="1.1" xmlns="http://www.w3.org/2000/svg" xmlns:xlink="http://www.w3.org/1999/xlink" width="400" height="400" viewBox="0, 0, 400,400"><g id="svgg"><path id="path0" d="M197.188 5.760 C 197.188 9.007,190.812 43.497,188.263 54.041 C 177.663 97.884,163.689 106.082,138.560 83.201 C 133.517 78.609,124.850 69.011,119.313 61.885 C 118.047 60.255,118.020 60.832,119.221 63.889 C 129.976 91.285,129.572 109.287,118.076 114.928 C 104.746 121.468,80.537 115.996,22.867 93.408 C 17.629 91.356,13.283 89.737,13.210 89.811 C 13.137 89.884,16.178 92.419,19.969 95.444 C 61.109 128.277,79.914 147.839,85.016 163.114 C 90.661 180.012,77.308 191.215,44.343 197.236 C 41.268 197.798,38.927 198.348,39.142 198.459 C 39.356 198.569,41.078 198.903,42.969 199.201 C 66.090 202.847,82.678 209.475,88.260 217.298 C 98.237 231.279,84.471 249.945,34.942 289.595 C 30.318 293.297,26.597 296.389,26.674 296.466 C 26.751 296.543,31.012 294.993,36.141 293.021 C 89.190 272.634,112.544 268.732,123.000 278.513 C 131.260 286.240,130.070 303.904,119.418 331.641 C 118.577 333.832,117.993 335.625,118.120 335.625 C 118.248 335.625,120.092 333.480,122.217 330.859 C 144.029 303.962,158.719 293.457,168.125 298.028 C 177.987 302.821,183.602 322.124,188.905 369.455 C 189.481 374.598,190.024 378.878,190.111 378.965 C 190.199 379.053,192.617 371.973,195.486 363.234 C 208.287 324.242,213.770 313.268,222.642 308.883 C 236.772 301.900,262.924 323.623,307.427 379.312 C 310.769 383.493,313.561 386.856,313.632 386.784 C 313.704 386.713,311.565 381.044,308.881 374.187 C 293.109 333.904,287.687 316.758,286.219 302.524 C 283.486 276.021,299.783 268.696,339.031 278.784 C 341.678 279.464,343.969 279.979,344.121 279.928 C 344.273 279.878,342.459 278.269,340.090 276.354 C 285.755 232.442,295.248 213.958,379.219 200.163 C 388.834 198.583,389.502 198.460,389.334 198.293 C 389.270 198.230,387.109 197.811,384.531 197.362 C 312.335 184.783,309.533 149.934,376.330 95.369 C 379.382 92.876,381.816 90.775,381.741 90.699 C 381.665 90.623,376.145 92.702,369.473 95.319 C 322.937 113.573,303.396 119.246,289.070 118.659 C 268.320 117.810,264.204 101.305,275.742 65.220 C 276.500 62.848,277.012 60.950,276.879 61.001 C 276.746 61.052,275.332 62.711,273.736 64.688 C 230.751 117.914,213.215 105.322,198.558 10.703 C 197.776 5.654,197.188 3.531,197.188 5.760 " stroke="none" fill="#e40404" fill-rule="evenodd"></path><path id="path1" d="" stroke="none" fill="#e80404" fill-rule="evenodd"></path><path id="path2" d="" stroke="none" fill="#e80404" fill-rule="evenodd"></path></g></svg>