<svg height="512" viewBox="0 0 512 512" width="512" xmlns="http://www.w3.org/2000/svg"><g id="flat"><path d="m476.672 392a40.021 40.021 0 0 0 -29.352-55.32 40.038 40.038 0 0 0 -47.32-31.88h-288a40.038 40.038 0 0 0 -47.32 31.88 40.021 40.021 0 0 0 -29.352 55.32" fill="#91a666"/><path d="m384 272h16l-24-56h16l-48-88-48 88h16l-24 56h16l-24 56h128z" fill="#5d6a41"/><path d="m328 328h32v64h-32z" fill="#7a4922"/><path d="m240 328h32v64h-32z" fill="#a3612d"/><path d="m240 328h32v8h-32z" fill="#7a4922"/><path d="m328 328h32v8h-32z" fill="#5b3719"/><path d="m208 272h16l-24-56h16l-48-88-48 88h16l-24 56h16l-24 56h128z" fill="#5d6a41"/><path d="m312 264h24l-40-72h24l-64-112-64 112h24l-40 72h24l-32 64h176z" fill="#768753"/><path d="m152 328h32v64h-32z" fill="#7a4922"/><g fill="#768753"><path d="m88 368a8 8 0 0 1 -8-8v-8a8 8 0 0 1 16 0v8a8 8 0 0 1 -8 8z"/><path d="m120 400a8 8 0 0 1 -8-8v-24a8 8 0 0 1 16 0v24a8 8 0 0 1 -8 8z"/><path d="m64 400a8 8 0 0 1 -8-8v-16a8 8 0 0 1 16 0v16a8 8 0 0 1 -8 8z"/><path d="m424 368a8 8 0 0 1 -8-8v-8a8 8 0 0 1 16 0v8a8 8 0 0 1 -8 8z"/><path d="m392 400a8 8 0 0 1 -8-8v-24a8 8 0 0 1 16 0v24a8 8 0 0 1 -8 8z"/><path d="m448 400a8 8 0 0 1 -8-8v-16a8 8 0 0 1 16 0v16a8 8 0 0 1 -8 8z"/></g><path d="m407.959 49.357c.026-.449.041-.9.041-1.357a24 24 0 0 0 -46.652-7.932c-.448-.037-.893-.068-1.348-.068a15.986 15.986 0 0 0 -14.293 8.839 24.008 24.008 0 0 0 -17.707 23.161 24 24 0 0 0 24 24h48a24 24 0 0 0 24-24 24.006 24.006 0 0 0 -16.041-22.643z" fill="#e6e5e0"/><path d="m424 72a24.006 24.006 0 0 1 -24 24h-31.6a20.007 20.007 0 0 1 17.7-15.9 15.964 15.964 0 0 1 13.9-8.1c.46 0 .9.03 1.35.07a24.014 24.014 0 0 1 17.09-15.42c.36.43.71.88 1.04 1.34a23.884 23.884 0 0 1 4.52 14.01z" fill="#e6e5e0"/><path d="m424 72a24.006 24.006 0 0 1 -24 24h-31.6a20.007 20.007 0 0 1 17.7-15.9 15.964 15.964 0 0 1 13.9-8.1c.46 0 .9.03 1.35.07a24.014 24.014 0 0 1 17.09-15.42c.36.43.71.88 1.04 1.34a23.884 23.884 0 0 1 4.52 14.01z" fill="#bbbab6"/><path d="m101.9 120.1a15.982 15.982 0 0 0 -13.9-8.1c-.455 0-.9.031-1.348.068a24 24 0 0 0 -46.652 7.932c0 .134.008.266.01.4a20.006 20.006 0 0 0 -16.01 19.6 20 20 0 0 0 20 20h56a20 20 0 0 0 20-20 20 20 0 0 0 -18.1-19.9z" fill="#e6e5e0"/><path d="m160 104a7.974 7.974 0 0 1 -5.657-2.343l-8-8a3.312 3.312 0 0 0 -4.686 0 8 8 0 0 1 -11.314-11.314 19.314 19.314 0 0 1 27.314 0l2.343 2.344 2.343-2.344a19.314 19.314 0 0 1 27.314 0 8 8 0 0 1 -11.314 11.314 3.312 3.312 0 0 0 -4.686 0l-8 8a7.974 7.974 0 0 1 -5.657 2.343z" fill="#bbbab6"/><path d="m112 72a7.974 7.974 0 0 1 -5.657-2.343l-8-8a3.312 3.312 0 0 0 -4.686 0 8 8 0 0 1 -11.314-11.314 19.314 19.314 0 0 1 27.314 0l2.343 2.344 2.343-2.344a19.314 19.314 0 0 1 27.314 0 8 8 0 0 1 -11.314 11.314 3.312 3.312 0 0 0 -4.686 0l-8 8a7.974 7.974 0 0 1 -5.657 2.343z" fill="#bbbab6"/><path d="m152 328h32v8h-32z" fill="#5b3719"/><path d="m24 392h464v96h-464z" fill="#7a4922"/><path d="m122.66 420.573a28.573 28.573 0 0 0 28.573 28.573v9.524c0 15.78 12.792 29.33 28.573 29.33h152.388c15.781 0 28.573-13.55 28.573-29.33v-9.524a28.573 28.573 0 0 0 28.573-28.573 28.573 28.573 0 0 0 -28.573-28.573h-209.534a28.573 28.573 0 0 0 -28.573 28.573z" fill="#a6deff"/><g fill="#92d1f7"><path d="m216 432h-40a8 8 0 0 1 0-16h40a8 8 0 0 1 0 16z"/><path d="m264 432h-16a8 8 0 0 1 0-16h16a8 8 0 0 1 0 16z"/><path d="m280 464h-80a8 8 0 0 1 0-16h80a8 8 0 0 1 0 16z"/><path d="m328 464h-16a8 8 0 0 1 0-16h16a8 8 0 0 1 0 16z"/><path d="m344 432h-56a8 8 0 0 1 0-16h56a8 8 0 0 1 0 16z"/></g><path d="m394.1 88.1a15.982 15.982 0 0 1 13.9-8.1c.455 0 .9.031 1.348.068a24 24 0 0 1 46.652 7.932c0 .134-.008.266-.01.4a20.006 20.006 0 0 1 16.01 19.6 20 20 0 0 1 -20 20h-56a20 20 0 0 1 -20-20 20 20 0 0 1 18.1-19.9z" fill="#e6e5e0"/></g></svg>