<svg height="512" viewBox="0 0 128 128" width="512" xmlns="http://www.w3.org/2000/svg"><g><path d="m4.75 118.247h118.5a3 3 0 0 1 3 3v5a0 0 0 0 1 0 0h-124.5a0 0 0 0 1 0 0v-5a3 3 0 0 1 3-3z" fill="#4d5e80"/><path d="m97.75 55.361h23.25v62.886h-23.25z" fill="#e69f6e"/><path d="m105.75 76.805v-9.819a3.625 3.625 0 0 1 3.625-3.625 3.625 3.625 0 0 1 3.625 3.625v9.819z" fill="#995a4d"/><path d="m7 55.361h23.25v62.886h-23.25z" fill="#e69f6e" transform="matrix(-1 0 0 -1 37.25 173.608)"/><path d="m22.25 76.805v-9.819a3.625 3.625 0 0 0 -3.625-3.625 3.625 3.625 0 0 0 -3.625 3.625v9.819z" fill="#995a4d"/><path d="m88.901 65.369v12.275h-10.701v-12.275h-8.85v12.275h-10.7v-12.275h-8.85v12.275h-10.701v-12.275h-8.849v12.275 40.603h67.5v-40.603-12.275z" fill="#ffc080"/><g fill="#995a4d"><path d="m58.375 94.625h11.25a5 5 0 0 1 5 5v18.622a0 0 0 0 1 0 0h-21.25a0 0 0 0 1 0 0v-18.622a5 5 0 0 1 5-5z"/><path d="m25.125 30v11.742h-13v-11.742h-9.128v11.742l4.003 13.619h23.25l4.003-13.619v-11.742z"/><path d="m102.875 30v11.742h13v-11.742h9.128v11.742l-4.003 13.619h-23.25l-4.003-13.619v-11.742z"/><path d="m30.25 84.25h67.5v3.5h-67.5z"/><path d="m82.203 31.687h-36.406l4.003 11.747h28.4z"/></g><path d="m82.203 31.687-18.203-29.94-18.203 29.94z" fill="#ffc080"/><path d="m58.65 77.644h10.7v-12.275h8.85v-21.935h-28.4v21.935h8.85z" fill="#e69f6e"/></g></svg>