<?xml version="1.0" encoding="iso-8859-1"?>
<!-- Generator: Adobe Illustrator 19.0.0, SVG Export Plug-In . SVG Version: 6.00 Build 0)  -->
<svg version="1.1" id="Capa_1" xmlns="http://www.w3.org/2000/svg" xmlns:xlink="http://www.w3.org/1999/xlink" x="0px" y="0px"
	 viewBox="0 0 512 512" style="enable-background:new 0 0 512 512;" xml:space="preserve">
<polygon style="fill:#BCAAA3;" points="292.374,246.51 224.775,226.442 74.368,230.343 32.096,246.51 32.096,287.774 
	48.614,303.832 32.096,319.89 32.096,431.814 46.553,447.871 32.096,463.93 32.096,512 292.374,512 389.816,375.801 "/>
<path style="fill:#FFCB80;" d="M93.451,56.623C67.586,151.915,1.969,205.865,1.342,206.374l14.307,20.068h286.39l36.31-20.068
	l48.034-149.751C386.383,56.623,93.451,56.623,93.451,56.623z"/>
<polygon style="fill:#4D342E;" points="325.474,246.51 338.348,206.374 292.374,206.374 1.342,206.374 1.342,246.51 "/>
<polygon style="fill:#D4BFB8;" points="487.258,192.726 487.258,192.726 456.565,136.486 389.816,20.075 292.374,160.18 
	292.374,192.726 292.374,287.774 292.374,287.774 389.816,303.832 487.258,287.774 487.258,287.774 "/>
<rect x="355.02" y="165.715" style="fill:#6D4C41;" width="69.599" height="86.947"/>
<polygon style="fill:#D4BFB8;" points="487.257,319.89 389.816,303.832 292.374,319.89 292.374,431.814 292.374,431.814 
	389.816,447.871 487.258,431.814 487.258,319.89 "/>
<polygon style="fill:#4D342E;" points="487.258,431.814 412.525,375.851 487.258,319.89 472.362,309.144 441.84,319.89 
	389.816,358.846 337.792,319.89 312.34,303.832 292.374,319.89 292.374,319.89 292.374,319.89 292.374,319.89 292.374,319.89 
	367.107,375.851 292.374,431.814 309.594,442.449 337.792,431.814 389.816,392.857 441.84,431.814 473.735,442.449 "/>
<path style="opacity:0.1;enable-background:new    ;" d="M456.565,136.486l-66.75-116.41L292.374,160.18v32.548v39.619l19.338-15.51
	c5.556-4.456,44.469-36.851,78.104-95.584c33.637,58.737,72.553,91.131,78.108,95.586l19.334,15.505v-39.616l0,0L456.565,136.486z"
	/>
<path style="fill:#6D4C41;" d="M487.258,192.727c-2.84-2.278-64.989-52.95-97.442-145.442
	c-32.453,92.492-94.602,143.164-97.442,145.442l-23.4-29.174c0.628-0.509,66.245-54.459,92.11-149.751
	C363.295,5.655,370.69,0,379.131,0h21.371c8.441,0,15.835,5.655,18.047,13.801c26.023,95.878,91.452,149.224,92.11,149.751
	L487.258,192.727z"/>
<polygon style="fill:#4D342E;" points="292.374,287.774 32.096,287.774 32.096,319.89 292.374,319.89 312.34,303.832 "/>
<rect x="292.375" y="287.771" style="fill:#6D4C41;" width="194.879" height="32.121"/>
<polygon style="fill:#D4BFB8;" points="487.257,463.93 487.258,463.93 389.816,447.871 292.374,463.93 292.375,463.93 
	292.374,463.93 292.374,512 487.258,512 487.258,463.93 "/>
<polygon style="fill:#4D342E;" points="292.374,431.814 32.096,431.814 32.096,463.93 292.374,463.93 312.34,447.871 "/>
<rect x="292.375" y="431.811" style="fill:#6D4C41;" width="194.879" height="32.121"/>
<rect x="32.1" y="463.901" style="opacity:0.1;enable-background:new    ;" width="455.165" height="32.07"/>
<rect x="32.1" y="319.892" style="opacity:0.1;enable-background:new    ;" width="455.165" height="32.07"/>
<g>
</g>
<g>
</g>
<g>
</g>
<g>
</g>
<g>
</g>
<g>
</g>
<g>
</g>
<g>
</g>
<g>
</g>
<g>
</g>
<g>
</g>
<g>
</g>
<g>
</g>
<g>
</g>
<g>
</g>
</svg>
