<svg id="Layer_1" height="512" viewBox="0 0 512 512" width="512" xmlns="http://www.w3.org/2000/svg" data-name="Layer 1"><path d="m91.43 89.94a4.313 4.313 0 0 1 -2.76 4.81 98.168 98.168 0 0 0 -10.95 4.78c-.35-.79-9.72-22.43 3.9-40.51 0 0 7.56 2.44 10.98 13.36a35.087 35.087 0 0 0 -1.17 17.56z" fill="#9b674e"/><path d="m499.08 319.3a242.684 242.684 0 0 1 .08 60.31s-24.75-16.79-45.47-39.92l.01-.01 1.98-14.75a2.208 2.208 0 0 1 3.14-2l14.74 6.81a2.208 2.208 0 0 0 3.13-1.92l1.57-14.32a2.212 2.212 0 0 1 2.98-1.98l17.83 7.78z" fill="#f4b798"/><path d="m354.78 329.75c63.8 46.88 43.86 69.98 23.33 98.55l-18.51 7.06a14.185 14.185 0 0 0 -7.78 7.21l-27.52.52a6.749 6.749 0 0 1 -6.7-8.92 14.2 14.2 0 0 1 8.38-8.69l17.66-3.63a35.781 35.781 0 0 0 25.92-20.89c6.54-15.54 12.7-15.85-27.88-57.4-12.44-12.74-35.28-34.28-37.32-52.03v-.01a102.332 102.332 0 0 1 12.03-7.2c5.77 14.08 17.17 29.84 38.39 45.43z" fill="#9b674e"/><path d="m179.64 390.25c.23 2.51.34 5.03.34 7.54a83.6 83.6 0 0 1 -8.95 37.67l-26.14-.61a3.826 3.826 0 0 1 -3.45-2.37 3.753 3.753 0 0 1 -.3-1.47 3.841 3.841 0 0 1 1.13-2.71l8.3-8.29a83.779 83.779 0 0 0 9.63-39.02c0-2.5-.11-5.02-.34-7.53l-3.41-14.85a249.2 249.2 0 0 1 -6.05-43.67c-.32-6.33-.64-11.75-.88-12.44a91.614 91.614 0 0 1 14.84 16.9 83.424 83.424 0 0 1 10.04 20.07 22.445 22.445 0 0 1 1.13 5.31z" fill="#9b674e"/><path d="m451.25 207.15c-18.3-22.78-41.01-24.76-52.6-24.01a33.83 33.83 0 0 1 -15.4-2.57c-16.43-6.92-56.85-20.19-102.72-7.54-36.93 10.19-69.81 4.13-89.6-2.02a39.838 39.838 0 0 1 -24.62-21.64c-15.94-35.6-46.63-49.82-46.63-49.82-1.05-25.59-21.79-40.53-21.79-40.53a101.344 101.344 0 0 0 -5.29 13.36 35.087 35.087 0 0 0 -1.17 17.56 4.313 4.313 0 0 1 -2.76 4.81 98.168 98.168 0 0 0 -10.95 4.78c-14.41 7.35-21.99 16.03-23.95 21.26a22.147 22.147 0 0 1 -9.84 11.61l-29.85 16.78a6.039 6.039 0 0 0 -1.73 9.07l6.35 7.8a14.833 14.833 0 0 0 10.38 5.42l29.1 2.19a17.259 17.259 0 0 1 14.84 11.07c8.76 23.02 32.18 78.3 61.14 95.87a58.186 58.186 0 0 0 15.36 21.9 91.614 91.614 0 0 1 14.84 16.9 83.424 83.424 0 0 1 10.04 20.07 22.445 22.445 0 0 1 1.13 5.31l4.11 45.47c.23 2.51.34 5.03.34 7.54a83.6 83.6 0 0 1 -8.95 37.67c-.22.45-.45.9-.68 1.34l-7.96 7.95a3.854 3.854 0 0 0 -.84 4.19l.12.28a3.839 3.839 0 0 0 3.55 2.37h22.09c2.99 0 4.7-1.8 5.85-4.57l13.6-30.44a20.936 20.936 0 0 0 1.58-6.93l-.6-80.29a135.277 135.277 0 0 1 2.62-20.27s48.75 17.64 90.1-14.69c1.27-1 2.58-1.96 3.9-2.87v-.01a102.332 102.332 0 0 1 12.03-7.2c5.77 14.08 17.17 29.84 38.39 45.43 63.8 46.88 43.86 69.98 23.33 98.55l-18.51 7.06a14.185 14.185 0 0 0 -7.78 7.21 12.725 12.725 0 0 0 -.6 1.48 6.757 6.757 0 0 0 6.7 8.92l23.55-1.03a13.189 13.189 0 0 0 11.33-7.52l37.11-78.24a7.97 7.97 0 0 0 -1.26-8.7c-27.81-31.55-31.63-60.6-23.8-87.07 6.07-20.49 6.61-36.05 5.2-47.21 0 0 15.06 15.34 15.9 61.33.35 19.09 13.03 38.73 27.74 55.16l.01-.01 1.98-14.75a2.208 2.208 0 0 1 3.14-2l14.74 6.81a2.208 2.208 0 0 0 3.13-1.92l1.57-14.32a2.212 2.212 0 0 1 2.98-1.98l17.83 7.78a224.91 224.91 0 0 0 -47.82-112.15z" fill="#ce875f"/><path d="m42.35 158.25a6.039 6.039 0 0 1 1.73-9.07l29.85-16.78a22.147 22.147 0 0 0 9.84-11.61c1.96-5.23 9.54-13.91 23.95-21.26a98.168 98.168 0 0 1 10.95-4.78 4.229 4.229 0 0 0 .53-.253c-3.294-22.49-21.31-35.477-21.31-35.477a101.344 101.344 0 0 0 -5.29 13.36 35.087 35.087 0 0 0 -1.17 17.56 4.313 4.313 0 0 1 -2.76 4.81 98.168 98.168 0 0 0 -10.95 4.78c-14.41 7.35-21.99 16.03-23.95 21.26a22.147 22.147 0 0 1 -9.84 11.61l-29.85 16.78a6.039 6.039 0 0 0 -1.73 9.07l6.35 7.8a14.833 14.833 0 0 0 10.38 5.42l24.639 1.854c-1.913-2.451-3.6-5.528-5.019-7.274z" fill="#e09570"/><path d="m208.065 372.823-2.535-28.043a22.445 22.445 0 0 0 -1.13-5.31 83.424 83.424 0 0 0 -10.04-20.07 91.614 91.614 0 0 0 -14.84-16.9 58.186 58.186 0 0 1 -15.36-21.9c-28.96-17.57-52.38-72.85-61.14-95.87a17.259 17.259 0 0 0 -14.84-11.07l-22.242 2.524a17.206 17.206 0 0 1 7.082 8.546c8.76 23.02 32.18 78.3 61.14 95.87a58.186 58.186 0 0 0 15.36 21.9 91.614 91.614 0 0 1 14.84 16.9 83.424 83.424 0 0 1 10.04 20.07 22.445 22.445 0 0 1 1.13 5.31l4.11 45.47c.23 2.51.34 5.03.34 7.54a83.6 83.6 0 0 1 -8.95 37.67c-.22.45-.45.9-.68 1.34l-7.96 7.95a3.854 3.854 0 0 0 -.84 4.19l.12.28a3.839 3.839 0 0 0 3.55 2.37h22.09a5.384 5.384 0 0 0 4.469-2.154c-.036-.073-.078-.141-.109-.216l-.12-.28a3.854 3.854 0 0 1 .84-4.19l3.222-3.218 11.148-24.952a20.936 20.936 0 0 0 1.58-6.93z" fill="#e09570"/><path d="m492.771 268.473a231.406 231.406 0 0 0 -36.848-65.08c-19.924-24.8-44.682-27.084-57.667-26.238a28.142 28.142 0 0 1 -12.682-2.114c-16.053-6.758-58.576-21.047-106.635-7.792-34.976 9.647-66.2 4.252-86.226-1.973a33.819 33.819 0 0 1 -20.931-18.352 112.307 112.307 0 0 0 -46.382-51.152 57.443 57.443 0 0 0 -7.535-22.709 65.622 65.622 0 0 0 -16.465-18.911 6 6 0 0 0 -8.949 2.339c-.343.739-.666 1.454-.984 2.164a20.9 20.9 0 0 0 -7.994-5.344 6 6 0 0 0 -6.637 2.1c-11.664 15.474-8.884 32.858-6.419 41.37-10.27 6.007-19.2 13.759-22.26 21.907a16.235 16.235 0 0 1 -7.165 8.484l-29.85 16.775a12.037 12.037 0 0 0 -3.442 18.089l6.342 7.8a20.9 20.9 0 0 0 14.584 7.619l29.1 2.194a11.3 11.3 0 0 1 9.687 7.213c8.783 23.1 32.165 78.134 61.88 97.732a64.091 64.091 0 0 0 14.534 20.806c.12 1.521.307 4.395.577 9.844a257.064 257.064 0 0 0 6.2 44.718l3.318 14.44a77.658 77.658 0 0 1 -8.246 42.02l-7.644 7.636a9.838 9.838 0 0 0 6.724 16.8l12.844.3a9.785 9.785 0 0 0 -1.586 10.084l.116.28a9.806 9.806 0 0 0 9.089 6.076h22.092c2.963 0 8.369-1.065 11.359-8.18l13.577-30.378c.022-.049.043-.1.064-.15a26.948 26.948 0 0 0 2.023-8.9c.006-.122.009-.244.008-.366l-.6-80.1q.354-6.438 1.346-12.8a114.991 114.991 0 0 0 27.2 3.269c17.091 0 38.405-3.9 58.573-18.379 6.044 15.309 21.281 30.728 32.949 42.529 1.261 1.275 2.461 2.488 3.576 3.63 17.907 18.333 26.486 28.422 29.612 34.825 2.243 4.594 1.46 6.3-1.137 11.947-.56 1.218-1.194 2.6-1.831 4.112a29.7 29.7 0 0 1 -21.6 17.339l-17.663 3.63a6.046 6.046 0 0 0 -.931.271 20.148 20.148 0 0 0 -11.924 12.363 12.758 12.758 0 0 0 12.088 16.84c.159 0 .318 0 .478-.01l20.648-.393a12.7 12.7 0 0 0 12.5 10.281c.188 0 .376 0 .565-.013l23.55-1.038a19.129 19.129 0 0 0 16.476-10.927l37.113-78.245a13.971 13.971 0 0 0 -2.178-15.238c-23.5-26.649-30.869-53.274-22.544-81.4a152.85 152.85 0 0 0 4.959-22.617 151.842 151.842 0 0 1 4.386 35.14c.888 48.537 72.779 97.859 75.839 99.936a6 6 0 0 0 9.325-4.248c4.715-39.166.561-76.799-12.346-111.855zm-409.405-200.873a17.462 17.462 0 0 1 2.949 5.011 40.174 40.174 0 0 0 -1.025 17.002q-1.964.757-3.953 1.627c-1.353-5.729-2.27-14.84 2.029-23.64zm66.722 361.373 4.723-4.718a6.02 6.02 0 0 0 1.071-1.454 89.646 89.646 0 0 0 9.952-49.877 5.9 5.9 0 0 0 -.128-.8l-3.411-14.846a245.154 245.154 0 0 1 -5.643-38.291 78.854 78.854 0 0 1 12.071 22.42 16.962 16.962 0 0 1 .832 3.923l4.107 45.471a77.62 77.62 0 0 1 -6.389 38.574zm198.338 7.665-24.243.462c-.05 0-.1 0-.149 0a.716.716 0 0 1 -.648-.305.7.7 0 0 1 -.11-.692 8.175 8.175 0 0 1 4.453-4.859l17.12-3.519a41.7 41.7 0 0 0 30.244-24.441c.561-1.333 1.125-2.563 1.672-3.752 7.371-16.035 5.528-22.983-30.793-60.168-1.132-1.159-2.349-2.39-3.628-3.683-10.471-10.59-27.425-27.744-31.307-41.393.9-.57 1.777-1.115 2.619-1.614 9.245 18.17 24.428 32.25 37.576 41.91 26.4 19.4 39.736 35.838 40.781 50.263.92 12.685-7.286 24.041-16.787 37.191l-.931 1.29-16.83 6.423a20.14 20.14 0 0 0 -9.039 6.883zm105.992-119.146a8.186 8.186 0 0 0 -4.724 6.919l-.121.9c-11.372-14.953-17.4-28.843-17.622-40.89-.734-40.134-12.16-58.483-16.22-63.76-2.333-15.571-8.183-23.062-8.615-23.6a6.03 6.03 0 0 0 -8.461-.921 5.97 5.97 0 0 0 -.915 8.41c.147.191 14.545 19.618 1.361 64.158-9.592 32.406-1.4 62.741 25.05 92.74a1.985 1.985 0 0 1 .337 2.159l-37.114 78.245a7.164 7.164 0 0 1 -6.158 4.088l-23.557 1.038a.718.718 0 0 1 -.648-.305.7.7 0 0 1 -.11-.692 8.182 8.182 0 0 1 4.842-5.019l18.5-7.06a6.018 6.018 0 0 0 2.741-2.106l1.969-2.731c10.422-14.422 20.265-28.045 19.03-45.086-1.333-18.393-15.836-37.162-45.644-59.064-58.6-43.056-37.986-85.863-37.094-87.638a6 6 0 1 0 -10.666-5.5c-.287.557-7.019 13.881-5.126 33.361a74.06 74.06 0 0 0 3.519 16.379 102.753 102.753 0 0 0 -12.206 8.157c-30.657 23.965-66.255 18.4-79.271 15.211.823-3.269 1.758-6.511 2.835-9.711l8.1-24.068a6.132 6.132 0 0 0 -2.981-7.491 6 6 0 0 0 -8.329 3.476l-8.161 24.257a142.044 142.044 0 0 0 -7.155 36.736l.537 81.412a14.978 14.978 0 0 1 -1.086 4.715l-14.075 31.375h-17.136l4.546-4.542a5.907 5.907 0 0 0 1.057-1.426 89.642 89.642 0 0 0 9.966-49.9l-4.107-45.47a28.666 28.666 0 0 0 -1.4-6.631 93.993 93.993 0 0 0 -26.588-39.587 52.607 52.607 0 0 1 -13.592-19.05 5.975 5.975 0 0 0 -.449-1.134 62.8 62.8 0 0 1 -3.277-32.586 6 6 0 1 0 -11.745-2.461 72.835 72.835 0 0 0 -.578 21.266c-11.707-12.529-28.119-36.423-45.248-81.471a23.35 23.35 0 0 0 -20-14.914l-29.1-2.194a8.851 8.851 0 0 1 -6.177-3.226l-6.329-7.852 29.846-16.778a28.249 28.249 0 0 0 12.518-14.73c.776-2.069 3.4-5.758 8.448-9.909 4.169-3.43 11.528-8.4 22.912-12.617a10.284 10.284 0 0 0 6.583-11.529c-1-5.351-.811-10.482 2.739-19.7 7.8 8.4 19.768 26.427 9.8 51.1a6.194 6.194 0 0 0 2.966 8 6 6 0 0 0 8.034-3.19 64.761 64.761 0 0 0 4.247-15.351 101.162 101.162 0 0 1 35.707 42.124 45.817 45.817 0 0 0 28.324 24.909c21.564 6.7 55.2 12.5 92.978 2.083 44.438-12.258 83.889 1.01 98.788 7.283a40.232 40.232 0 0 0 18.118 3.028c10.659-.7 31.008 1.212 47.532 21.78a219.406 219.406 0 0 1 34.942 61.71 217.134 217.134 0 0 1 9.965 36.819l-7.834-3.414c-.1-.043-.2-.083-.3-.12a8.209 8.209 0 0 0 -11.063 7.084l-1 9.091-9.725-4.491a8.477 8.477 0 0 0 -7.13-.098zm39.815 51.083a287.3 287.3 0 0 1 -27.139-23.524q-3.733-3.7-7.077-7.336l.963-7.178 10.061 4.647a8.21 8.21 0 0 0 11.632-6.85l1.008-9.2 9.838 4.288a234.839 234.839 0 0 1 .714 45.153z" fill="#284268"/></svg>