<svg id="Capa_1" enable-background="new 0 0 512 512" height="512" viewBox="0 0 512 512" width="512" xmlns="http://www.w3.org/2000/svg"><g><g><circle cx="405.507" cy="250.984" fill="#ffbf9e" r="37.17"/></g><g><circle cx="106.489" cy="250.984" fill="#f7ab8b" r="37.17"/></g><g><path d="m153.914 512c-12.946 0-22.765-11.815-20.235-24.511 11.387-57.149 61.824-100.218 122.321-100.218s110.934 43.069 122.322 100.219c2.53 12.696-7.29 24.511-20.235 24.511h-204.173z" fill="#4e5660"/></g><g><path d="m281.747 389.954c-8.309-1.756-16.921-2.684-25.747-2.684-60.368 0-110.877 43.15-122.307 100.207-2.543 12.699 7.282 24.523 20.233 24.523h28.854c0-59.921 42.52-110.136 98.967-122.046z" fill="#383c43"/></g><g><path d="m443.078 294.549c0-21.684-17.578-39.262-39.262-39.262v-21.302l-1.415-20.543c-9.999-71.913-71.735-127.274-146.401-127.274s-136.402 55.36-146.401 127.274l-1.415 20.543v21.302c-21.684 0-39.262 17.578-39.262 39.262 0 17.222 11.094 31.844 26.521 37.136-3.947 6.123-6.246 13.408-6.246 21.235 0 21.224 16.843 38.503 37.89 39.227-.979 3.43-1.514 7.046-1.514 10.79 0 21.684 17.578 39.262 39.262 39.262 2.67 0 5.276-.269 7.796-.777 6.697 12.073 19.567 20.249 34.352 20.249 7.021 0 13.607-1.852 19.31-5.081 7.2 8.329 17.833 13.607 29.707 13.607s22.507-5.278 29.707-13.607c5.703 3.229 12.288 5.081 19.31 5.081 14.785 0 27.655-8.176 34.352-20.249 2.52.508 5.126.777 7.796.777 21.684 0 39.262-17.578 39.262-39.262 0-3.744-.535-7.361-1.514-10.79 21.047-.724 37.89-18.004 37.89-39.227 0-7.827-2.299-15.112-6.246-21.235 15.427-5.292 26.521-19.914 26.521-37.136z" fill="#e26e7e"/></g><g><path d="m226.305 456.604c-4.99-7.339-7.908-16.199-7.908-25.742 0-7.561 1.842-14.687 5.084-20.974-24.825-.567-44.779-20.854-44.779-45.816 0-25.318 20.525-45.843 45.843-45.843v-228.699c-59.978 13-106.392 62.396-114.945 123.912l-1.415 20.543v21.302c-21.684 0-39.262 17.578-39.262 39.262 0 17.222 11.094 31.844 26.521 37.136-3.946 6.123-6.246 13.409-6.246 21.235 0 21.224 16.843 38.503 37.89 39.227-.979 3.43-1.514 7.046-1.514 10.79 0 21.684 17.578 39.262 39.262 39.262 2.67 0 5.276-.269 7.796-.777 6.697 12.073 19.567 20.249 34.352 20.249 7.021 0 13.607-1.852 19.31-5.081.003.006.007.01.011.014z" fill="#d3596e"/></g><g><g><path d="m453.095 5.983-19.933 39.867c-7.416 14.833-22.577 24.202-39.16 24.202h-276.004c-16.584 0-31.744-9.37-39.16-24.202l-19.933-39.867c-1.834-3.667-5.582-5.983-9.681-5.983-5.978 0-10.824 4.846-10.824 10.824v41.716c0 48.361 39.204 87.565 87.565 87.565h260.069c48.361 0 87.565-39.204 87.565-87.565v-41.716c.001-5.978-4.845-10.824-10.823-10.824-4.099 0-7.847 2.316-9.681 5.983z" fill="#fcf2d0"/></g></g><g><g><path d="m386.035 105.078h-260.07c-48.361 0-87.565-39.204-87.565-87.565v35.026c0 48.361 39.204 87.565 87.565 87.565h260.069c48.361 0 87.565-39.204 87.565-87.565v-35.026c.001 48.361-39.203 87.565-87.564 87.565z" fill="#efdfb4"/></g></g><g><g><path d="m255.999 37.087c-91.033 0-164.829 73.796-164.829 164.829h329.658c-.001-91.033-73.797-164.829-164.829-164.829z" fill="#9aa3b1"/></g></g><g><path d="m256 37.087h-.001c-91.032 0-164.829 73.796-164.829 164.829h61.811c0-69.173 42.614-128.384 103.02-152.834v-11.995z" fill="#7e8b9e"/></g><g><path d="m256 0c-11.379 0-20.604 9.225-20.604 20.604v181.312h41.207v-181.312c0-11.379-9.224-20.604-20.603-20.604z" fill="#fcf2d0"/></g><g><path d="m256 125.586c-11.379 0-20.604-9.225-20.604-20.604v96.933h41.207v-96.933c0 11.38-9.224 20.604-20.603 20.604z" fill="#efdfb4"/></g><g><path d="m144.458 211.843v77.701c0 22.954 18.608 41.561 41.561 41.561h139.961c22.954 0 41.561-18.608 41.561-41.561v-77.701z" fill="#ffd4be"/></g><g><path d="m236.607 289.544v-77.701h-92.149v77.701c0 22.954 18.608 41.561 41.561 41.561h92.149c-22.954 0-41.561-18.607-41.561-41.561z" fill="#ffbf9e"/></g><g fill="#4e5660"><path d="m205.787 249.122-24.791-6.643c-3.996-1.07-8.113 1.302-9.186 5.304-1.072 4.001 1.303 8.113 5.304 9.186l7.53 2.018c-.303.815-.477 1.693-.477 2.613v10.679c0 4.142 3.358 7.5 7.5 7.5s7.5-3.358 7.5-7.5v-9.401l2.738.734c.65.174 1.303.257 1.946.257 3.311 0 6.342-2.21 7.24-5.561 1.071-4.001-1.303-8.114-5.304-9.186z"/><path d="m340.189 247.783c-1.071-4.001-5.183-6.373-9.186-5.304l-24.791 6.643c-4.001 1.072-6.375 5.185-5.303 9.186.897 3.351 3.928 5.561 7.239 5.561.643 0 1.296-.083 1.946-.257l2.737-.733v9.401c0 4.142 3.357 7.5 7.5 7.5s7.5-3.358 7.5-7.5v-10.68c0-.92-.174-1.798-.477-2.613l7.531-2.018c4.003-1.073 6.377-5.185 5.304-9.186z"/></g><g><path d="m141.889 290.534c17.651 17.667 46.284 17.673 63.943.014 13.436-13.436 35.22-13.436 48.655 0l.111.111c13.436 13.436 13.436 35.22 0 48.655l-6.718 6.718c-27.887 27.887-73.1 27.887-100.987 0-13.497-13.497-20.46-31.052-20.892-48.737-.205-8.378 9.964-12.69 15.888-6.761z" fill="#e8899e"/></g><g><path d="m370.111 290.534c-17.651 17.667-46.284 17.673-63.943.014-13.436-13.436-35.22-13.436-48.655 0l-.111.111c-13.436 13.436-13.436 35.22 0 48.655l6.718 6.718c27.887 27.887 73.1 27.887 100.987 0 13.497-13.497 20.46-31.052 20.892-48.737.205-8.378-9.964-12.69-15.888-6.761z" fill="#e8899e"/></g><g><path d="m451.734 222.519h-391.468c-11.379 0-20.604-9.225-20.604-20.604 0-11.379 9.225-20.604 20.604-20.604h391.469c11.379 0 20.604 9.225 20.604 20.604-.001 11.38-9.226 20.604-20.605 20.604z" fill="#c6c6c6"/></g><g><path d="m216.003 201.915c0-11.379 9.225-20.604 20.604-20.604h-176.341c-11.379 0-20.604 9.225-20.604 20.604s9.225 20.604 20.604 20.604h176.341c-11.38 0-20.604-9.224-20.604-20.604z" fill="#9aa3b1"/></g><g><circle cx="334.111" cy="128.352" fill="#7e8b9e" r="20.604"/></g><g><circle cx="177.886" cy="128.352" fill="#7e8b9e" r="20.604"/></g></g></svg>