<svg height="512pt" viewBox="0 0 512 512" width="512pt" xmlns="http://www.w3.org/2000/svg"><path d="m454.308594 354.898438h15.453125v93.867187h-15.453125zm0 0" fill="#f25031"/><path d="m415.679688 205.519531h-159.679688v82.417969h159.679688c22.757812 0 41.207031-18.453125 41.207031-41.210938v-82.414062c-22.757813 0-41.207031 18.449219-41.207031 41.207031zm0 0" fill="#ffb9a0"/><path d="m96.320312 205.519531c0-22.757812-18.449218-41.207031-41.207031-41.207031v82.414062c0 22.757813 18.449219 41.210938 41.207031 41.210938h159.679688v-82.417969zm0 0" fill="#ffdccf"/><path d="m450.1875 416.707031h-30.902344l61.808594 94.777344h30.90625v-32.972656c0-34-27.816406-61.804688-61.8125-61.804688zm0 0" fill="#363636"/><path d="m419.285156 416.707031h-357.472656c-33.996094 0-61.8125 27.816407-61.8125 61.8125v32.964844h481.09375v-32.972656c0-34-27.8125-61.804688-61.808594-61.804688zm0 0" fill="#515151"/><path d="m257.667969 45.851562 127.105469 294.625 30.90625-134.957031c0-87.625-70.589844-158.769531-158.011719-159.667969zm0 0" fill="#ffb9a0"/><path d="m257.667969 45.851562c-.554688-.007812-1.113281-.007812-1.667969-.007812-88.183594 0-159.679688 71.492188-159.679688 159.675781l30.90625 134.957031h278.148438l-18.933594-104.039062-1.667968-30.917969c0-87.492187-56.753907-158.554687-127.105469-159.667969zm0 0" fill="#ffdccf"/><path d="m384.773438 236.425781v51.511719l-127.105469 224.050781c87.421875-.894531 158.011719-72.039062 158.011719-159.667969v-146.800781c-17 0-30.90625 13.910157-30.90625 30.90625zm0 0" fill="#6f6f6f"/><path d="m333.261719 287.9375c0 17.066406-13.835938 30.902344-30.902344 30.902344h-92.71875c-17.066406 0-30.902344-13.835938-30.902344-30.902344h-51.511719v-51.511719c0-16.996093-13.90625-30.90625-30.90625-30.90625v146.800781c0 88.183594 71.496094 159.679688 159.679688 159.679688.554688 0 1.113281 0 1.667969-.011719 70.351562-1.109375 127.105469-72.171875 127.105469-159.667969v-64.382812zm0 0" fill="#8c8c8c"/><path d="m302.359375 221.488281c-4.269531 0-7.726563-3.457031-7.726563-7.726562v-8.242188c0-4.265625 3.457032-7.726562 7.726563-7.726562h30.902344c4.269531 0 7.726562 3.460937 7.726562 7.726562 0 4.269531-3.457031 7.726563-7.726562 7.726563h-23.175781v.515625c0 4.269531-3.460938 7.726562-7.726563 7.726562zm0 0" fill="#242424"/><path d="m209.640625 221.488281c-4.265625 0-7.726563-3.457031-7.726563-7.726562v-.515625h-23.175781c-4.269531 0-7.726562-3.457032-7.726562-7.726563 0-4.265625 3.457031-7.726562 7.726562-7.726562h30.902344c4.269531 0 7.726563 3.460937 7.726563 7.726562v8.242188c0 4.269531-3.457032 7.726562-7.726563 7.726562zm0 0" fill="#242424"/><path d="m302.359375 241.9375c-17.070313 0-30.90625 13.835938-30.90625 30.902344v15.453125h30.90625zm0 0" fill="#fff"/><path d="m209.640625 241.9375v46.355469h30.90625v-15.453125c0-17.066406-13.835937-30.902344-30.90625-30.902344zm0 0" fill="#fff"/><path d="m302.359375 296.019531h-92.71875c-4.265625 0-7.726563-3.457031-7.726563-7.726562 0-4.265625 3.460938-7.726563 7.726563-7.726563h92.71875c4.265625 0 7.726563 3.460938 7.726563 7.726563 0 4.269531-3.460938 7.726562-7.726563 7.726562zm0 0" fill="#ff7240"/><path d="m462.035156 308.539062c-8.53125 0-15.453125 6.917969-15.453125 15.453126v46.359374c0 8.53125 6.921875 15.453126 15.453125 15.453126 8.535156 0 15.453125-6.921876 15.453125-15.453126v-46.359374c0-8.535157-6.917969-15.453126-15.453125-15.453126zm0 0" fill="#87c241"/><path d="m163.285156 166.890625c-4.269531 0-7.726562-3.460937-7.726562-7.726563v-61.8125c0-4.265624 3.457031-7.726562 7.726562-7.726562 4.265625 0 7.726563 3.460938 7.726563 7.726562v61.8125c0 4.265626-3.460938 7.726563-7.726563 7.726563zm0 0" fill="#f25031"/><path d="m163.285156 50.992188c8.53125 0 15.453125 6.921874 15.453125 15.453124v46.359376c0 8.535156-6.921875 15.453124-15.453125 15.453124-8.535156 0-15.453125-6.917968-15.453125-15.453124v-46.359376c0-8.53125 6.917969-15.453124 15.453125-15.453124zm0 0" fill="#87c241"/><path d="m352.054688 166.890625c-4.269532 0-7.726563-3.460937-7.726563-7.726563v-61.8125c0-4.265624 3.457031-7.726562 7.726563-7.726562 4.265624 0 7.726562 3.460938 7.726562 7.726562v61.8125c0 4.265626-3.460938 7.726563-7.726562 7.726563zm0 0" fill="#f25031"/><path d="m352.054688 50.992188c-8.535157 0-15.453126 6.921874-15.453126 15.453124v46.359376c0 8.535156 6.917969 15.453124 15.453126 15.453124 8.535156 0 15.453124-6.917968 15.453124-15.453124v-46.359376c0-8.53125-6.917968-15.453124-15.453124-15.453124zm0 0" fill="#87c241"/><path d="m225.09375 115.894531c-4.265625 0-7.726562-3.457031-7.726562-7.726562v-61.808594c0-4.269531 3.460937-7.726563 7.726562-7.726563 4.269531 0 7.726562 3.457032 7.726562 7.726563v61.808594c0 4.269531-3.457031 7.726562-7.726562 7.726562zm0 0" fill="#f25031"/><g fill="#87c241"><path d="m225.09375 0c-8.53125 0-15.453125 6.917969-15.453125 15.453125v46.359375c0 8.53125 6.921875 15.449219 15.453125 15.449219 8.535156 0 15.453125-6.917969 15.453125-15.449219v-46.359375c0-8.535156-6.917969-15.453125-15.453125-15.453125zm0 0"/><path d="m256 146.285156c-4.265625 0-7.726562-3.457031-7.726562-7.726562v-15.453125c0-4.265625 3.460937-7.726563 7.726562-7.726563s7.726562 3.460938 7.726562 7.726563v15.453125c0 4.269531-3.460937 7.726562-7.726562 7.726562zm0 0"/><path d="m209.640625 166.890625c-4.265625 0-7.726563-3.460937-7.726563-7.726563v-15.453124c0-4.269532 3.460938-7.726563 7.726563-7.726563 4.269531 0 7.726563 3.457031 7.726563 7.726563v15.453124c0 4.265626-3.457032 7.726563-7.726563 7.726563zm0 0"/></g></svg>