<svg id="Capa_1" enable-background="new 0 0 512 512" height="512" viewBox="0 0 512 512" width="512" xmlns="http://www.w3.org/2000/svg"><g><g><g><path d="m439.3 233.099-10.5 83.701c-6.601 13.5-15 26.1-24.901 37.8-2.699 3.6-6.899 5.4-11.4 5.4h-272.999c-4.501 0-8.701-1.8-11.4-5.4-9.901-11.7-18.3-24.3-24.901-37.8l-9.299-95.1 182.1-183.9 9-9.001z" fill="#345866"/><path d="m439.3 233.099-10.5 83.701c-6.601 13.5-15 26.1-24.901 37.8-2.699 3.6-6.899 5.4-11.4 5.4h-136.499v-322.2l9-9.001z" fill="#2e384d"/><path d="m392.199 366.899c-25.199 25.8-56.1 43.2-89.399 49.2-11.4 13.799-24.901 24.6-40.201 32.401-2.098.899-4.199 1.5-6.599 1.5s-4.501-.601-6.599-1.5c-15.3-7.8-28.801-18.602-40.201-32.401-36-6.301-69.3-26.1-95.4-55.501l12.6-30.598h69.6c8.401 0 15-6.601 15-15v-5.101c0-8.399 6.599-15 15-15h60c8.401 0 15 6.601 15 15v5.101c0 8.399 6.599 15 15 15h69.6z" fill="#ffd9b3"/><path d="m392.199 366.899c-25.199 25.8-56.1 43.2-89.399 49.2-11.4 13.799-24.901 24.6-40.201 32.401-2.098.899-4.199 1.5-6.599 1.5v-155.101h30c8.401 0 15 6.601 15 15v5.101c0 8.399 6.599 15 15 15h69.6z" fill="#fb9"/><path d="m406 330c57.9 0 106 47.1 106 105v62c0 8.399-6.599 15-15 15h-76l-17.1-18.3-12.9 18.3h-270l-12.9-24-17.1 24h-76c-8.401 0-15-6.601-15-15v-62c0-57.9 48.1-105 106-105h20.4c47.1 51.899 77.1 55.199 93.001 57.599 3.898.3 7.5 2.401 9.899 5.7 7.8 10.201 16.5 18.3 26.7 24.6 10.201-6.301 18.9-14.399 26.7-24.6 2.399-3.3 6-5.4 9.899-5.7 16.501-2.401 45.901-5.7 93.001-57.599z" fill="#407580"/><path d="m406 330c57.9 0 106 47.1 106 105v62c0 8.399-6.599 15-15 15h-76l-17.1-18.3-12.9 18.3h-135v-94.1c10.201-6.301 18.9-14.399 26.7-24.6 2.399-3.3 6-5.4 9.899-5.7 16.501-2.401 45.901-5.7 93.001-57.599h20.4z" fill="#345866"/><path d="m121 435v77h-30v-77c0-8.401 6.599-15 15-15s15 6.599 15 15z" fill="#345866"/><path d="m406 420c8.401 0 15 6.599 15 15v77h-30v-77c0-8.401 6.599-15 15-15z" fill="#2e384d"/></g></g><g><path d="m361 66.53v149.17c-16.13 24.27-43.73 55.3-75 55.3h-60c-31.27 0-58.87-31.03-75-55.3v-149.17c11.47-8.24 23.42-15.1 35.7-20.53h138.6c12.28 5.43 24.23 12.29 35.7 20.53z" fill="#ffd9b3"/></g><path d="m256 271h30c31.27 0 58.87-31.03 75-55.3v-149.17c-11.47-8.24-23.42-15.1-35.7-20.53h-69.3z" fill="#fb9"/><path d="m256 0c-109.799 0-195 120.899-195 225 0 9.899.601 19.499 2.401 29.099 2.999 21.901 9.6 43.2 19.799 62.701.3-.601.3-1.201.3-1.8 0-87.9 79.501-195 172.5-195s172.5 107.1 172.5 195c0 .599 0 1.199.3 1.8 10.199-19.501 16.8-40.8 19.799-62.701 1.8-9.6 2.401-19.2 2.401-29.099 0-104.101-85.201-225-195-225z" fill="#407580"/><path d="m451 225c0 9.899-.601 19.499-2.401 29.099-2.999 21.901-9.6 43.2-19.799 62.701-.3-.601-.3-1.201-.3-1.8 0-87.9-79.501-195-172.5-195v-120c109.799 0 195 120.899 195 225z" fill="#345866"/><g><g><path d="m361 215.7v25.3c0 41.35-33.65 75-75 75h-60c-41.35 0-75-33.65-75-75v-25.3c16.13 24.27 43.73 40.3 75 40.3h60c31.27 0 58.87-16.03 75-40.3z" fill="#f3f5f9"/></g><path d="m256 316h30c41.35 0 75-33.65 75-75v-25.3c-16.13 24.27-43.73 40.3-75 40.3h-30z" fill="#cfd6e6"/></g></g></svg>